<svg xmlns="http://www.w3.org/2000/svg" xmlns:xlink="http://www.w3.org/1999/xlink" width="380" zoomAndPan="magnify" viewBox="0 0 285 178.499995" height="238" preserveAspectRatio="xMidYMid meet" version="1.0"><defs><g/><clipPath id="32f2347112"><path d="M 0.246094 0.242188 L 144.5625 0.242188 L 144.5625 84 L 0.246094 84 Z M 0.246094 0.242188 " clip-rule="nonzero"/></clipPath><clipPath id="42638ac752"><rect x="0" width="145" y="0" height="114"/></clipPath></defs><g transform="matrix(1, 0, 0, 1, 26, 28)"><g clip-path="url(#42638ac752)"><g clip-path="url(#32f2347112)"><g fill="#ffffff" fill-opacity="1"><g transform="translate(9.44347, 70.600872)"><g><path d="M 28.34375 -12.515625 C 28.039062 -12.515625 27.890625 -12.363281 27.890625 -12.0625 C 28.128906 -12.1875 28.28125 -12.335938 28.34375 -12.515625 Z M 28.34375 -12.609375 C 28.695312 -12.609375 28.9375 -12.664062 29.0625 -12.78125 C 29.414062 -13.019531 29.769531 -13.285156 30.125 -13.578125 C 30.488281 -13.878906 30.847656 -14.148438 31.203125 -14.390625 C 32.867188 -15.703125 34.566406 -16.953125 36.296875 -18.140625 C 38.023438 -19.335938 39.722656 -20.5625 41.390625 -21.8125 C 43.535156 -23.363281 45.710938 -24.910156 47.921875 -26.453125 C 50.128906 -28.003906 52.332031 -29.53125 54.53125 -31.03125 C 56.082031 -32.101562 57.632812 -33.160156 59.1875 -34.203125 C 60.738281 -35.242188 62.316406 -36.238281 63.921875 -37.1875 C 64.992188 -37.84375 66.066406 -38.484375 67.140625 -39.109375 C 68.210938 -39.734375 69.253906 -40.4375 70.265625 -41.21875 C 70.390625 -41.28125 70.507812 -41.335938 70.625 -41.390625 C 70.75 -41.453125 70.867188 -41.515625 70.984375 -41.578125 C 71.640625 -41.867188 72.28125 -42.191406 72.90625 -42.546875 C 73.53125 -42.910156 74.144531 -43.269531 74.75 -43.625 C 76.289062 -44.582031 77.820312 -45.507812 79.34375 -46.40625 C 80.863281 -47.300781 82.398438 -48.164062 83.953125 -49 C 84.304688 -49.175781 84.660156 -49.367188 85.015625 -49.578125 C 85.378906 -49.785156 85.738281 -49.976562 86.09375 -50.15625 C 86.269531 -50.332031 86.421875 -50.453125 86.546875 -50.515625 C 87.492188 -50.929688 88.398438 -51.390625 89.265625 -51.890625 C 90.128906 -52.398438 91.039062 -52.894531 92 -53.375 C 93.1875 -53.96875 94.363281 -54.59375 95.53125 -55.25 C 96.695312 -55.90625 97.875 -56.53125 99.0625 -57.125 C 100.25 -57.726562 101.425781 -58.34375 102.59375 -58.96875 C 103.757812 -59.59375 104.96875 -60.171875 106.21875 -60.703125 C 107.769531 -61.359375 109.332031 -62.03125 110.90625 -62.71875 C 112.488281 -63.40625 114.054688 -64.046875 115.609375 -64.640625 C 117.328125 -65.410156 119.097656 -66.125 120.921875 -66.78125 C 122.742188 -67.4375 124.578125 -67.972656 126.421875 -68.390625 C 127.429688 -68.867188 128.457031 -69.179688 129.5 -69.328125 C 130.539062 -69.484375 131.597656 -69.617188 132.671875 -69.734375 C 133.148438 -69.859375 133.597656 -69.859375 134.015625 -69.734375 C 134.492188 -69.734375 134.765625 -69.554688 134.828125 -69.203125 C 134.410156 -68.722656 133.875 -68.484375 133.21875 -68.484375 C 132.257812 -68.484375 131.363281 -68.332031 130.53125 -68.03125 C 129.695312 -67.738281 128.863281 -67.441406 128.03125 -67.140625 C 126.65625 -66.609375 125.296875 -66.039062 123.953125 -65.4375 C 122.617188 -64.84375 121.328125 -64.160156 120.078125 -63.390625 C 119.953125 -63.328125 119.828125 -63.25 119.703125 -63.15625 C 119.585938 -63.070312 119.472656 -63 119.359375 -62.9375 C 119.054688 -62.820312 118.738281 -62.703125 118.40625 -62.578125 C 118.082031 -62.460938 117.773438 -62.285156 117.484375 -62.046875 C 117.179688 -61.804688 116.863281 -61.613281 116.53125 -61.46875 C 116.207031 -61.320312 115.898438 -61.15625 115.609375 -60.96875 C 115.367188 -60.789062 115.082031 -60.597656 114.75 -60.390625 C 114.425781 -60.179688 114.113281 -59.988281 113.8125 -59.8125 C 113.15625 -59.457031 112.484375 -59.097656 111.796875 -58.734375 C 111.117188 -58.378906 110.453125 -58.023438 109.796875 -57.671875 C 109.492188 -57.492188 109.191406 -57.3125 108.890625 -57.125 C 108.597656 -56.945312 108.300781 -56.738281 108 -56.5 C 107.707031 -56.257812 107.378906 -56.050781 107.015625 -55.875 C 106.660156 -55.695312 106.273438 -55.519531 105.859375 -55.34375 C 105.796875 -55.28125 105.691406 -55.234375 105.546875 -55.203125 C 105.398438 -55.171875 105.265625 -55.097656 105.140625 -54.984375 C 104.660156 -54.566406 104.148438 -54.238281 103.609375 -54 C 103.078125 -53.757812 102.515625 -53.492188 101.921875 -53.203125 C 101.503906 -53.015625 101.144531 -52.742188 100.84375 -52.390625 C 100.550781 -51.972656 100.078125 -51.585938 99.421875 -51.234375 C 98.410156 -50.691406 97.378906 -50.148438 96.328125 -49.609375 C 95.285156 -49.078125 94.257812 -48.546875 93.25 -48.015625 C 92.0625 -47.296875 90.828125 -46.59375 89.546875 -45.90625 C 88.265625 -45.21875 87.023438 -44.519531 85.828125 -43.8125 C 85.585938 -43.6875 85.316406 -43.550781 85.015625 -43.40625 C 84.722656 -43.257812 84.425781 -43.097656 84.125 -42.921875 C 83.945312 -42.859375 83.753906 -42.765625 83.546875 -42.640625 C 83.335938 -42.523438 83.144531 -42.410156 82.96875 -42.296875 C 82.195312 -41.640625 81.363281 -41.070312 80.46875 -40.59375 C 79.570312 -40.113281 78.675781 -39.609375 77.78125 -39.078125 C 77.601562 -38.953125 77.425781 -38.828125 77.25 -38.703125 C 77.070312 -38.585938 76.863281 -38.472656 76.625 -38.359375 C 76.382812 -38.296875 76.128906 -38.175781 75.859375 -38 C 75.585938 -37.820312 75.304688 -37.644531 75.015625 -37.46875 C 74.773438 -37.226562 74.519531 -36.988281 74.25 -36.75 C 73.976562 -36.507812 73.632812 -36.390625 73.21875 -36.390625 C 72.976562 -36.210938 72.753906 -36.003906 72.546875 -35.765625 C 72.335938 -35.523438 72.085938 -35.34375 71.796875 -35.21875 C 71.203125 -34.988281 70.664062 -34.691406 70.1875 -34.328125 C 69.707031 -33.972656 69.171875 -33.644531 68.578125 -33.34375 C 67.984375 -33.164062 67.476562 -32.8125 67.0625 -32.28125 C 66.582031 -31.800781 66.015625 -31.410156 65.359375 -31.109375 C 64.578125 -30.691406 63.859375 -30.226562 63.203125 -29.71875 C 62.554688 -29.21875 61.929688 -28.671875 61.328125 -28.078125 C 61.273438 -28.015625 61.203125 -27.953125 61.109375 -27.890625 C 61.015625 -27.835938 60.941406 -27.78125 60.890625 -27.71875 C 60.765625 -27.78125 60.582031 -27.8125 60.34375 -27.8125 C 59.875 -27.382812 59.398438 -26.945312 58.921875 -26.5 C 58.441406 -26.0625 57.90625 -25.660156 57.3125 -25.296875 C 57.007812 -25.054688 56.722656 -24.816406 56.453125 -24.578125 C 56.191406 -24.347656 55.820312 -24.171875 55.34375 -24.046875 C 55.21875 -24.046875 55.066406 -23.957031 54.890625 -23.78125 C 54.359375 -23.25 53.765625 -22.800781 53.109375 -22.4375 C 52.453125 -22.082031 51.882812 -21.609375 51.40625 -21.015625 C 51.164062 -20.773438 50.867188 -20.59375 50.515625 -20.46875 C 50.210938 -20.351562 50.0625 -20.265625 50.0625 -20.203125 C 49.820312 -19.609375 49.40625 -19.160156 48.8125 -18.859375 C 48.21875 -18.566406 47.742188 -18.179688 47.390625 -17.703125 C 47.085938 -17.816406 46.875 -17.769531 46.75 -17.5625 C 46.632812 -17.351562 46.519531 -17.191406 46.40625 -17.078125 C 45.800781 -16.484375 45.21875 -15.914062 44.65625 -15.375 C 44.09375 -14.84375 43.453125 -14.367188 42.734375 -13.953125 C 42.554688 -13.890625 42.363281 -13.78125 42.15625 -13.625 C 41.945312 -13.476562 41.78125 -13.316406 41.65625 -13.140625 C 41.0625 -12.546875 40.40625 -11.976562 39.6875 -11.4375 C 38.976562 -10.90625 38.296875 -10.3125 37.640625 -9.65625 C 37.398438 -9.414062 37.113281 -9.207031 36.78125 -9.03125 C 36.457031 -8.851562 36.148438 -8.644531 35.859375 -8.40625 C 35.429688 -8.164062 35.070312 -7.804688 34.78125 -7.328125 C 34.539062 -6.910156 34.253906 -6.535156 33.921875 -6.203125 C 33.597656 -5.878906 33.195312 -5.570312 32.71875 -5.28125 C 32.476562 -5.15625 32.269531 -4.988281 32.09375 -4.78125 C 31.914062 -4.570312 31.738281 -4.378906 31.5625 -4.203125 C 31.320312 -3.960938 31.097656 -3.738281 30.890625 -3.53125 C 30.679688 -3.320312 30.425781 -3.128906 30.125 -2.953125 C 29.53125 -2.535156 28.976562 -2.085938 28.46875 -1.609375 C 27.96875 -1.128906 27.445312 -0.648438 26.90625 -0.171875 C 26.664062 0.117188 26.378906 0.425781 26.046875 0.75 C 25.722656 1.082031 25.328125 1.335938 24.859375 1.515625 C 24.679688 1.578125 24.472656 1.726562 24.234375 1.96875 C 23.210938 2.976562 22.117188 3.945312 20.953125 4.875 C 19.796875 5.800781 18.65625 6.769531 17.53125 7.78125 C 16.925781 8.257812 16.367188 8.75 15.859375 9.25 C 15.359375 9.757812 14.867188 10.34375 14.390625 11 C 14.035156 11.769531 13.441406 12.097656 12.609375 11.984375 C 12.242188 11.921875 11.941406 11.960938 11.703125 12.109375 C 11.472656 12.265625 11.207031 12.398438 10.90625 12.515625 C 10.664062 12.398438 10.410156 12.3125 10.140625 12.25 C 9.878906 12.1875 9.597656 12.125 9.296875 12.0625 C 9.054688 11.945312 8.785156 11.84375 8.484375 11.75 C 8.191406 11.664062 7.894531 11.5625 7.59375 11.4375 C 6.820312 10.96875 6.347656 10.34375 6.171875 9.5625 C 6.171875 9.382812 6.140625 9.207031 6.078125 9.03125 C 6.015625 8.851562 5.984375 8.675781 5.984375 8.5 C 5.984375 8.019531 6.015625 7.691406 6.078125 7.515625 C 6.140625 7.328125 6.195312 7.144531 6.25 6.96875 C 6.3125 6.789062 6.375 6.613281 6.4375 6.4375 C 6.851562 5.71875 7.222656 5 7.546875 4.28125 C 7.878906 3.570312 8.253906 2.890625 8.671875 2.234375 C 8.910156 1.878906 9.117188 1.519531 9.296875 1.15625 C 9.472656 0.800781 9.679688 0.445312 9.921875 0.09375 C 10.335938 -0.6875 10.8125 -1.429688 11.34375 -2.140625 C 11.882812 -2.859375 12.453125 -3.546875 13.046875 -4.203125 C 13.828125 -5.097656 14.546875 -6.003906 15.203125 -6.921875 C 15.859375 -7.847656 16.515625 -8.789062 17.171875 -9.75 C 17.347656 -10.039062 17.539062 -10.304688 17.75 -10.546875 C 17.957031 -10.785156 18.148438 -11.023438 18.328125 -11.265625 C 18.921875 -11.984375 19.515625 -12.695312 20.109375 -13.40625 C 20.710938 -14.125 21.28125 -14.867188 21.8125 -15.640625 C 22.226562 -16.296875 22.675781 -16.878906 23.15625 -17.390625 C 23.632812 -17.898438 24.050781 -18.453125 24.40625 -19.046875 C 24.707031 -19.640625 25.09375 -20.1875 25.5625 -20.6875 C 26.039062 -21.195312 26.488281 -21.691406 26.90625 -22.171875 C 27.5625 -23.003906 28.203125 -23.835938 28.828125 -24.671875 C 29.453125 -25.503906 30.066406 -26.3125 30.671875 -27.09375 C 30.847656 -27.332031 31.039062 -27.566406 31.25 -27.796875 C 31.457031 -28.035156 31.648438 -28.273438 31.828125 -28.515625 C 32.722656 -29.585938 33.601562 -30.660156 34.46875 -31.734375 C 35.332031 -32.804688 36.148438 -33.910156 36.921875 -35.046875 C 37.578125 -35.816406 38.203125 -36.585938 38.796875 -37.359375 C 39.398438 -38.140625 40 -38.921875 40.59375 -39.703125 C 41.070312 -40.234375 41.519531 -40.78125 41.9375 -41.34375 C 42.351562 -41.914062 42.769531 -42.5 43.1875 -43.09375 C 43.300781 -43.207031 43.398438 -43.351562 43.484375 -43.53125 C 43.578125 -43.71875 43.6875 -43.867188 43.8125 -43.984375 C 44.757812 -45.179688 45.664062 -46.40625 46.53125 -47.65625 C 47.394531 -48.90625 48.21875 -50.15625 49 -51.40625 C 49.53125 -52.238281 50.003906 -53.054688 50.421875 -53.859375 C 50.835938 -54.671875 51.226562 -55.523438 51.59375 -56.421875 C 51.945312 -57.304688 52.210938 -58.195312 52.390625 -59.09375 C 52.566406 -59.988281 52.597656 -60.914062 52.484375 -61.875 C 52.421875 -62.582031 52.09375 -63.117188 51.5 -63.484375 C 51.257812 -63.597656 51.035156 -63.710938 50.828125 -63.828125 C 50.617188 -63.953125 50.363281 -64.015625 50.0625 -64.015625 C 48.9375 -64.128906 47.789062 -64.140625 46.625 -64.046875 C 45.457031 -63.960938 44.28125 -63.773438 43.09375 -63.484375 C 42.5 -63.296875 41.890625 -63.113281 41.265625 -62.9375 C 40.640625 -62.757812 40 -62.523438 39.34375 -62.234375 C 37.375 -61.515625 35.4375 -60.707031 33.53125 -59.8125 C 31.625 -58.914062 29.773438 -57.929688 27.984375 -56.859375 C 26.972656 -56.203125 25.957031 -55.546875 24.9375 -54.890625 C 23.925781 -54.234375 22.972656 -53.488281 22.078125 -52.65625 C 21.835938 -52.539062 21.613281 -52.390625 21.40625 -52.203125 C 21.195312 -52.023438 20.976562 -51.878906 20.75 -51.765625 C 20.207031 -51.347656 19.664062 -50.945312 19.125 -50.5625 C 18.59375 -50.175781 18.085938 -49.742188 17.609375 -49.265625 C 17.554688 -49.203125 17.5 -49.140625 17.4375 -49.078125 C 17.375 -49.023438 17.3125 -48.96875 17.25 -48.90625 C 16.0625 -48.132812 15.003906 -47.238281 14.078125 -46.21875 C 13.160156 -45.207031 12.191406 -44.222656 11.171875 -43.265625 C 10.992188 -43.085938 10.828125 -42.910156 10.671875 -42.734375 C 10.523438 -42.554688 10.363281 -42.410156 10.1875 -42.296875 C 9.289062 -41.515625 8.585938 -40.835938 8.078125 -40.265625 C 7.578125 -39.703125 6.972656 -38.945312 6.265625 -38 C 6.023438 -37.582031 5.738281 -37.191406 5.40625 -36.828125 C 5.082031 -36.472656 4.769531 -36.085938 4.46875 -35.671875 C 3.8125 -34.898438 3.21875 -34.125 2.6875 -33.34375 C 2.445312 -32.875 2.175781 -32.414062 1.875 -31.96875 C 1.582031 -31.519531 1.253906 -31.085938 0.890625 -30.671875 C 0.410156 -30.066406 0.234375 -29.289062 0.359375 -28.34375 C 0.472656 -27.925781 0.585938 -27.460938 0.703125 -26.953125 C 0.828125 -26.453125 0.953125 -25.960938 1.078125 -25.484375 C 1.191406 -25.242188 1.320312 -25.019531 1.46875 -24.8125 C 1.625 -24.601562 1.757812 -24.378906 1.875 -24.140625 C 2.351562 -23.367188 2.59375 -22.625 2.59375 -21.90625 C 2.65625 -21.363281 2.445312 -20.882812 1.96875 -20.46875 C 1.789062 -20.414062 1.625 -20.34375 1.46875 -20.25 C 1.320312 -20.15625 1.160156 -20.082031 0.984375 -20.03125 C 0.566406 -19.96875 0.164062 -19.921875 -0.21875 -19.890625 C -0.601562 -19.859375 -1.007812 -19.785156 -1.4375 -19.671875 C -2.03125 -19.960938 -2.640625 -20.285156 -3.265625 -20.640625 C -3.890625 -21.003906 -4.53125 -21.363281 -5.1875 -21.71875 C -5.664062 -22.019531 -6.023438 -22.410156 -6.265625 -22.890625 C -6.378906 -23.066406 -6.476562 -23.257812 -6.5625 -23.46875 C -6.65625 -23.675781 -6.765625 -23.867188 -6.890625 -24.046875 C -7.117188 -24.410156 -7.351562 -24.753906 -7.59375 -25.078125 C -7.832031 -25.398438 -8.101562 -25.679688 -8.40625 -25.921875 C -8.582031 -26.046875 -8.789062 -26.347656 -9.03125 -26.828125 C -8.90625 -27.054688 -8.769531 -27.289062 -8.625 -27.53125 C -8.476562 -27.769531 -8.316406 -27.976562 -8.140625 -28.15625 C -7.421875 -29.175781 -6.6875 -30.207031 -5.9375 -31.25 C -5.195312 -32.289062 -4.441406 -33.289062 -3.671875 -34.25 C -3.304688 -34.71875 -2.898438 -35.175781 -2.453125 -35.625 C -2.003906 -36.070312 -1.601562 -36.535156 -1.25 -37.015625 C -0.894531 -37.492188 -0.519531 -37.957031 -0.125 -38.40625 C 0.257812 -38.851562 0.660156 -39.285156 1.078125 -39.703125 C 1.847656 -40.535156 2.648438 -41.367188 3.484375 -42.203125 C 4.316406 -43.035156 5.125 -43.835938 5.90625 -44.609375 C 6.4375 -45.148438 6.984375 -45.6875 7.546875 -46.21875 C 8.117188 -46.757812 8.671875 -47.269531 9.203125 -47.75 C 9.804688 -48.21875 10.390625 -48.71875 10.953125 -49.25 C 11.515625 -49.789062 12.097656 -50.269531 12.703125 -50.6875 C 13.953125 -51.707031 15.1875 -52.691406 16.40625 -53.640625 C 17.625 -54.597656 18.890625 -55.492188 20.203125 -56.328125 C 21.335938 -57.046875 22.46875 -57.757812 23.59375 -58.46875 C 24.726562 -59.1875 25.863281 -59.90625 27 -60.625 C 27.832031 -61.15625 28.679688 -61.644531 29.546875 -62.09375 C 30.410156 -62.539062 31.289062 -62.972656 32.1875 -63.390625 C 33.257812 -63.867188 34.359375 -64.316406 35.484375 -64.734375 C 36.617188 -65.148438 37.753906 -65.535156 38.890625 -65.890625 C 40.554688 -66.429688 42.222656 -66.804688 43.890625 -67.015625 C 45.566406 -67.222656 47.269531 -67.296875 49 -67.234375 C 50.488281 -67.171875 51.875 -66.882812 53.15625 -66.375 C 54.4375 -65.875 55.582031 -65.054688 56.59375 -63.921875 C 56.769531 -63.742188 56.960938 -63.566406 57.171875 -63.390625 C 57.378906 -63.210938 57.546875 -63.003906 57.671875 -62.765625 C 57.785156 -62.585938 57.914062 -62.40625 58.0625 -62.21875 C 58.21875 -62.039062 58.320312 -61.832031 58.375 -61.59375 C 58.5 -61.363281 58.585938 -61.128906 58.640625 -60.890625 C 58.703125 -60.648438 58.765625 -60.378906 58.828125 -60.078125 C 58.890625 -59.898438 58.9375 -59.722656 58.96875 -59.546875 C 59 -59.367188 59.015625 -59.191406 59.015625 -59.015625 C 59.066406 -57.941406 59.019531 -56.878906 58.875 -55.828125 C 58.726562 -54.785156 58.535156 -53.726562 58.296875 -52.65625 C 57.992188 -52 57.722656 -51.3125 57.484375 -50.59375 C 57.242188 -49.882812 56.890625 -49.203125 56.421875 -48.546875 C 55.816406 -47.585938 55.21875 -46.617188 54.625 -45.640625 C 54.03125 -44.660156 53.40625 -43.660156 52.75 -42.640625 C 52.632812 -42.410156 52.484375 -42.175781 52.296875 -41.9375 C 52.117188 -41.695312 51.941406 -41.488281 51.765625 -41.3125 C 51.171875 -40.707031 50.632812 -40.019531 50.15625 -39.25 C 49.5 -38.289062 48.796875 -37.363281 48.046875 -36.46875 C 47.304688 -35.582031 46.550781 -34.691406 45.78125 -33.796875 C 45.363281 -33.316406 44.972656 -32.820312 44.609375 -32.3125 C 44.253906 -31.8125 43.867188 -31.320312 43.453125 -30.84375 C 43.210938 -30.539062 42.941406 -30.210938 42.640625 -29.859375 C 42.347656 -29.503906 42.019531 -29.175781 41.65625 -28.875 C 41.425781 -28.632812 41.234375 -28.378906 41.078125 -28.109375 C 40.929688 -27.847656 40.738281 -27.597656 40.5 -27.359375 C 39.664062 -26.398438 38.84375 -25.429688 38.03125 -24.453125 C 37.226562 -23.472656 36.382812 -22.503906 35.5 -21.546875 C 34.78125 -20.773438 34.09375 -20 33.4375 -19.21875 C 32.78125 -18.445312 32.125 -17.644531 31.46875 -16.8125 C 31.050781 -16.332031 30.632812 -15.820312 30.21875 -15.28125 C 29.800781 -14.75 29.382812 -14.210938 28.96875 -13.671875 C 28.84375 -13.492188 28.722656 -13.332031 28.609375 -13.1875 C 28.492188 -13.039062 28.40625 -12.847656 28.34375 -12.609375 Z M 28.34375 -12.609375 "/></g></g></g></g></g></g><g fill="#000000" fill-opacity="1"><g transform="translate(83.441459, 104.10613)"><g><path d="M -0.558594 -3.109375 C 0.136719 -3.109375 0.6875 -3.15625 1.097656 -3.253906 C 1.347656 -3.3125 1.546875 -3.410156 1.695312 -3.546875 C 1.894531 -3.730469 2.070312 -4 2.226562 -4.351562 C 2.4375 -4.824219 2.640625 -5.460938 2.839844 -6.257812 L 7.152344 -22.648438 C 7.316406 -23.253906 7.4375 -23.769531 7.515625 -24.199219 C 7.585938 -24.570312 7.617188 -24.882812 7.617188 -25.128906 C 7.617188 -25.21875 7.613281 -25.296875 7.601562 -25.351562 C 7.597656 -25.367188 7.59375 -25.378906 7.589844 -25.386719 C 7.59375 -25.382812 7.59375 -25.378906 7.597656 -25.375 C 7.632812 -25.308594 7.679688 -25.261719 7.742188 -25.234375 C 7.378906 -25.394531 6.640625 -25.472656 5.53125 -25.472656 L 3.398438 -25.472656 L 4.699219 -30.207031 L 27.828125 -30.207031 L 27.828125 -19.460938 L 23.550781 -19.460938 L 23.226562 -20.660156 C 22.9375 -21.730469 22.621094 -22.59375 22.28125 -23.242188 C 21.980469 -23.8125 21.65625 -24.246094 21.308594 -24.542969 C 20.984375 -24.820312 20.625 -25.011719 20.226562 -25.121094 C 19.734375 -25.257812 19.179688 -25.324219 18.558594 -25.324219 L 13.734375 -25.324219 L 13.734375 -26.949219 L 15.304688 -26.535156 L 12.410156 -15.511719 L 10.839844 -15.925781 L 10.839844 -17.546875 L 13.175781 -17.546875 C 13.707031 -17.546875 14.136719 -17.59375 14.472656 -17.679688 C 14.71875 -17.746094 14.941406 -17.859375 15.144531 -18.023438 C 15.382812 -18.214844 15.621094 -18.503906 15.855469 -18.890625 C 16.15625 -19.378906 16.492188 -20.023438 16.859375 -20.832031 L 17.292969 -21.78125 L 21.695312 -21.78125 L 18.8125 -7.542969 L 14.203125 -7.542969 L 14.382812 -9.328125 C 14.449219 -10.019531 14.484375 -10.609375 14.484375 -11.097656 C 14.484375 -11.515625 14.449219 -11.863281 14.378906 -12.132812 C 14.335938 -12.304688 14.285156 -12.425781 14.226562 -12.492188 C 14.191406 -12.511719 14.140625 -12.535156 14.074219 -12.554688 C 13.847656 -12.628906 13.539062 -12.667969 13.140625 -12.667969 L 10.355469 -12.667969 L 10.355469 -14.289062 L 11.925781 -13.875 L 9.808594 -5.894531 C 9.625 -5.210938 9.53125 -4.65625 9.53125 -4.230469 C 9.53125 -4.085938 9.550781 -3.976562 9.597656 -3.902344 C 9.644531 -3.824219 9.734375 -3.746094 9.875 -3.671875 C 10.421875 -3.371094 11.523438 -3.21875 13.175781 -3.21875 C 14.472656 -3.21875 15.59375 -3.320312 16.535156 -3.519531 C 17.402344 -3.703125 18.144531 -3.984375 18.761719 -4.367188 C 19.363281 -4.742188 19.890625 -5.238281 20.347656 -5.859375 C 20.863281 -6.558594 21.355469 -7.4375 21.828125 -8.496094 L 22.257812 -9.457031 L 27.386719 -9.457031 L 23.289062 1.625 L -3.097656 1.625 L -1.792969 -3.109375 Z M -0.558594 0.140625 L -0.558594 -1.484375 L 1.007812 -1.054688 L 0.601562 0.429688 L -0.964844 0 L -0.964844 -1.625 L 22.160156 -1.625 L 22.160156 0 L 20.636719 -0.5625 L 23.53125 -8.394531 L 25.054688 -7.832031 L 25.054688 -6.207031 L 23.308594 -6.207031 L 23.308594 -7.832031 L 24.792969 -7.167969 C 24.226562 -5.902344 23.617188 -4.824219 22.96875 -3.9375 C 22.261719 -2.976562 21.429688 -2.199219 20.472656 -1.605469 C 19.53125 -1.023438 18.445312 -0.601562 17.207031 -0.339844 C 16.042969 -0.09375 14.699219 0.0273438 13.175781 0.0273438 C 10.96875 0.0273438 9.347656 -0.253906 8.316406 -0.820312 C 7.660156 -1.179688 7.160156 -1.648438 6.808594 -2.234375 C 6.457031 -2.820312 6.28125 -3.488281 6.28125 -4.230469 C 6.28125 -4.945312 6.410156 -5.777344 6.671875 -6.726562 L 9.105469 -15.914062 L 13.140625 -15.914062 C 14.785156 -15.914062 15.984375 -15.464844 16.730469 -14.566406 C 17.398438 -13.757812 17.734375 -12.601562 17.734375 -11.097656 C 17.734375 -10.5 17.695312 -9.804688 17.613281 -9.007812 L 16 -9.167969 L 16 -10.792969 L 17.484375 -10.792969 L 17.484375 -9.167969 L 15.890625 -9.492188 L 18.117188 -20.476562 L 19.710938 -20.15625 L 19.710938 -18.53125 L 18.335938 -18.53125 L 18.335938 -20.15625 L 19.8125 -19.480469 C 19.390625 -18.554688 18.996094 -17.789062 18.625 -17.191406 C 18.195312 -16.488281 17.714844 -15.921875 17.183594 -15.496094 C 16.621094 -15.039062 15.992188 -14.722656 15.296875 -14.539062 C 14.691406 -14.378906 13.984375 -14.300781 13.175781 -14.300781 L 8.734375 -14.300781 L 12.480469 -28.570312 L 18.558594 -28.570312 C 19.472656 -28.570312 20.316406 -28.464844 21.085938 -28.253906 C 21.949219 -28.015625 22.726562 -27.605469 23.417969 -27.015625 C 24.085938 -26.445312 24.664062 -25.691406 25.15625 -24.75 C 25.609375 -23.890625 26.011719 -22.808594 26.363281 -21.507812 L 24.796875 -21.082031 L 24.796875 -22.707031 L 26.207031 -22.707031 L 26.207031 -21.082031 L 24.582031 -21.082031 L 24.582031 -28.582031 L 26.207031 -28.582031 L 26.207031 -26.957031 L 5.9375 -26.957031 L 5.9375 -28.582031 L 7.503906 -28.152344 L 7.097656 -26.664062 L 5.53125 -27.097656 L 5.53125 -28.71875 C 7.09375 -28.71875 8.261719 -28.550781 9.035156 -28.214844 C 9.667969 -27.941406 10.140625 -27.503906 10.460938 -26.90625 C 10.730469 -26.402344 10.867188 -25.808594 10.867188 -25.128906 C 10.867188 -24.683594 10.8125 -24.175781 10.710938 -23.609375 C 10.617188 -23.097656 10.476562 -22.5 10.292969 -21.820312 L 5.992188 -5.472656 C 5.746094 -4.488281 5.480469 -3.675781 5.195312 -3.035156 C 4.859375 -2.273438 4.429688 -1.652344 3.910156 -1.167969 C 3.339844 -0.636719 2.648438 -0.277344 1.835938 -0.0898438 C 1.179688 0.0625 0.382812 0.140625 -0.558594 0.140625 Z M -0.558594 0.140625 "/></g></g></g><g fill="#000000" fill-opacity="1"><g transform="translate(110.906356, 104.10613)"><g><path d="M 10.210938 -7.238281 C 9.972656 -6.410156 9.792969 -5.683594 9.664062 -5.058594 C 9.550781 -4.496094 9.492188 -4.109375 9.492188 -3.898438 C 9.492188 -3.839844 9.496094 -3.804688 9.503906 -3.792969 C 9.527344 -3.757812 9.585938 -3.714844 9.683594 -3.664062 C 10.152344 -3.417969 10.957031 -3.292969 12.101562 -3.292969 L 14.167969 -3.292969 L 12.96875 1.625 L -2.761719 1.625 L -1.460938 -3.109375 L -0.222656 -3.109375 C 0.53125 -3.109375 1.125 -3.3125 1.554688 -3.71875 C 2.078125 -4.21875 2.511719 -5.089844 2.851562 -6.332031 L 7.226562 -22.691406 C 7.511719 -23.742188 7.65625 -24.53125 7.65625 -25.054688 C 7.65625 -25.132812 7.652344 -25.199219 7.640625 -25.246094 C 7.636719 -25.257812 7.636719 -25.265625 7.632812 -25.273438 C 7.636719 -25.269531 7.636719 -25.261719 7.640625 -25.257812 C 7.660156 -25.214844 7.683594 -25.183594 7.710938 -25.15625 C 7.71875 -25.152344 7.71875 -25.148438 7.722656 -25.148438 C 7.714844 -25.152344 7.703125 -25.160156 7.691406 -25.167969 C 7.558594 -25.238281 7.339844 -25.296875 7.035156 -25.34375 C 6.601562 -25.40625 6.046875 -25.449219 5.363281 -25.472656 L 3.308594 -25.542969 L 4.589844 -30.207031 L 16.148438 -30.207031 C 19.441406 -30.207031 22.078125 -29.554688 24.054688 -28.25 C 25.136719 -27.535156 25.953125 -26.671875 26.507812 -25.652344 C 27.066406 -24.625 27.347656 -23.476562 27.347656 -22.195312 C 27.347656 -20.945312 27.105469 -19.792969 26.625 -18.738281 C 26.152344 -17.703125 25.476562 -16.773438 24.601562 -15.960938 C 23.761719 -15.175781 22.761719 -14.511719 21.605469 -13.972656 C 20.488281 -13.445312 19.257812 -13.046875 17.917969 -12.773438 L 17.59375 -14.363281 L 19.101562 -14.972656 L 21.847656 -8.179688 C 22.347656 -6.96875 22.789062 -5.988281 23.175781 -5.234375 C 23.507812 -4.59375 23.835938 -4.109375 24.160156 -3.785156 C 24.410156 -3.535156 24.679688 -3.371094 24.96875 -3.285156 C 25.378906 -3.167969 25.914062 -3.109375 26.578125 -3.109375 L 28.707031 -3.109375 L 27.40625 1.625 L 18.007812 1.625 L 12.148438 -13.328125 L 13.660156 -13.917969 L 13.660156 -12.296875 L 10.394531 -12.296875 L 10.394531 -13.917969 L 11.957031 -13.480469 L 10.210938 -7.246094 Z M 7.085938 -8.121094 L 9.160156 -15.542969 L 14.765625 -15.542969 L 20.628906 -0.59375 L 19.117188 0 L 19.117188 -1.625 L 26.167969 -1.625 L 26.167969 0 L 24.601562 -0.429688 L 25.011719 -1.914062 L 26.578125 -1.484375 L 26.578125 0.140625 C 25.605469 0.140625 24.769531 0.0390625 24.066406 -0.164062 C 23.242188 -0.402344 22.507812 -0.84375 21.863281 -1.488281 C 21.300781 -2.050781 20.773438 -2.804688 20.289062 -3.746094 C 19.859375 -4.578125 19.375 -5.652344 18.835938 -6.964844 L 15.355469 -15.566406 L 17.269531 -15.957031 C 18.355469 -16.179688 19.339844 -16.496094 20.226562 -16.910156 C 21.074219 -17.308594 21.796875 -17.785156 22.390625 -18.335938 C 22.949219 -18.859375 23.375 -19.441406 23.671875 -20.085938 C 23.957031 -20.714844 24.097656 -21.417969 24.097656 -22.195312 C 24.097656 -22.921875 23.953125 -23.554688 23.65625 -24.097656 C 23.359375 -24.640625 22.894531 -25.121094 22.269531 -25.535156 C 20.832031 -26.484375 18.792969 -26.957031 16.148438 -26.957031 L 5.828125 -26.957031 L 5.828125 -28.582031 L 7.394531 -28.152344 L 6.984375 -26.664062 L 5.417969 -27.097656 L 5.472656 -28.71875 C 6.277344 -28.691406 6.960938 -28.636719 7.515625 -28.554688 C 8.199219 -28.453125 8.773438 -28.273438 9.238281 -28.023438 C 9.832031 -27.699219 10.269531 -27.261719 10.546875 -26.710938 C 10.785156 -26.234375 10.902344 -25.683594 10.902344 -25.054688 C 10.902344 -24.242188 10.722656 -23.175781 10.367188 -21.851562 L 5.984375 -5.472656 C 5.484375 -3.648438 4.753906 -2.277344 3.792969 -1.363281 C 2.734375 -0.363281 1.398438 0.140625 -0.222656 0.140625 L -0.222656 -1.484375 L 1.34375 -1.054688 L 0.933594 0.429688 L -0.632812 0 L -0.632812 -1.625 L 11.691406 -1.625 L 11.691406 0 L 10.113281 -0.386719 L 10.523438 -2.054688 L 12.101562 -1.671875 L 12.101562 -0.046875 C 10.421875 -0.046875 9.113281 -0.292969 8.171875 -0.789062 C 7.5625 -1.109375 7.09375 -1.53125 6.761719 -2.054688 C 6.417969 -2.597656 6.246094 -3.210938 6.246094 -3.898438 C 6.246094 -4.328125 6.324219 -4.929688 6.480469 -5.707031 C 6.625 -6.414062 6.828125 -7.222656 7.085938 -8.128906 Z M 10.875 -17.4375 L 12.695312 -17.4375 C 13.835938 -17.4375 14.890625 -17.566406 15.855469 -17.824219 C 16.765625 -18.070312 17.53125 -18.417969 18.152344 -18.859375 C 18.730469 -19.273438 19.183594 -19.777344 19.507812 -20.375 C 19.820312 -20.949219 19.980469 -21.632812 19.980469 -22.417969 C 19.980469 -23.394531 19.71875 -24.09375 19.195312 -24.527344 C 18.582031 -25.03125 17.589844 -25.285156 16.222656 -25.285156 C 15.863281 -25.285156 15.585938 -25.261719 15.386719 -25.207031 C 15.320312 -25.191406 15.273438 -25.167969 15.242188 -25.136719 C 15.160156 -25.0625 15.078125 -24.929688 14.992188 -24.738281 C 14.859375 -24.445312 14.730469 -24.046875 14.605469 -23.546875 L 12.445312 -15.398438 L 10.875 -15.8125 Z M 8.765625 -14.1875 L 11.453125 -24.335938 C 11.625 -25.023438 11.816406 -25.605469 12.03125 -26.074219 C 12.292969 -26.652344 12.617188 -27.128906 13.007812 -27.496094 C 13.445312 -27.910156 13.964844 -28.195312 14.570312 -28.351562 C 15.039062 -28.472656 15.585938 -28.535156 16.222656 -28.535156 C 18.367188 -28.535156 20.046875 -28.035156 21.261719 -27.03125 C 22.574219 -25.953125 23.226562 -24.414062 23.226562 -22.417969 C 23.226562 -21.078125 22.9375 -19.878906 22.359375 -18.820312 C 21.796875 -17.785156 21.023438 -16.917969 20.042969 -16.21875 C 19.101562 -15.546875 17.988281 -15.039062 16.699219 -14.691406 C 15.460938 -14.355469 14.125 -14.1875 12.695312 -14.1875 Z M 8.765625 -14.1875 "/></g></g></g><g fill="#000000" fill-opacity="1"><g transform="translate(139.224892, 104.10613)"><g><path d="M 20.710938 -29.648438 L 23.832031 -29.648438 L 21.582031 -19.089844 L 17.433594 -19.089844 L 17.382812 -20.660156 C 17.320312 -22.570312 17.019531 -23.882812 16.480469 -24.601562 C 16.0625 -25.15625 15.332031 -25.433594 14.289062 -25.433594 C 13.695312 -25.433594 13.160156 -25.355469 12.679688 -25.199219 C 12.242188 -25.058594 11.878906 -24.859375 11.585938 -24.605469 C 11.296875 -24.355469 11.070312 -24.0625 10.90625 -23.730469 C 10.757812 -23.421875 10.679688 -23.085938 10.679688 -22.714844 C 10.679688 -22.171875 10.828125 -21.695312 11.121094 -21.285156 C 11.527344 -20.714844 12.050781 -20.171875 12.691406 -19.660156 C 13.417969 -19.074219 14.207031 -18.480469 15.058594 -17.882812 C 16.011719 -17.214844 16.894531 -16.476562 17.710938 -15.671875 C 18.585938 -14.8125 19.3125 -13.835938 19.886719 -12.746094 C 20.503906 -11.570312 20.8125 -10.214844 20.8125 -8.6875 C 20.8125 -7.191406 20.519531 -5.789062 19.929688 -4.476562 C 19.347656 -3.179688 18.554688 -2.054688 17.546875 -1.089844 C 16.546875 -0.132812 15.382812 0.621094 14.058594 1.167969 C 12.71875 1.71875 11.289062 1.996094 9.761719 1.996094 C 6.601562 1.996094 3.847656 0.761719 1.496094 -1.699219 L 2.671875 -2.820312 L 4.238281 -2.386719 L 3.128906 1.625 L -1.320312 1.625 L 0.773438 -11.050781 L 4.894531 -11.050781 L 5 -9.539062 C 5.148438 -7.332031 5.660156 -5.695312 6.53125 -4.625 C 7.292969 -3.6875 8.382812 -3.21875 9.800781 -3.21875 C 10.507812 -3.21875 11.144531 -3.320312 11.710938 -3.519531 C 12.261719 -3.710938 12.722656 -3.96875 13.101562 -4.292969 C 13.464844 -4.605469 13.753906 -4.980469 13.964844 -5.410156 C 14.164062 -5.816406 14.261719 -6.265625 14.261719 -6.753906 C 14.261719 -7.472656 14.089844 -8.089844 13.75 -8.609375 C 13.304688 -9.285156 12.753906 -9.925781 12.089844 -10.523438 C 11.371094 -11.171875 10.582031 -11.800781 9.71875 -12.40625 C 8.738281 -13.09375 7.835938 -13.832031 7.007812 -14.617188 C 6.132812 -15.449219 5.398438 -16.371094 4.800781 -17.378906 C 4.128906 -18.511719 3.796875 -19.796875 3.796875 -21.230469 C 3.796875 -22.546875 4.078125 -23.785156 4.644531 -24.949219 C 5.199219 -26.085938 5.953125 -27.074219 6.910156 -27.910156 C 7.847656 -28.730469 8.9375 -29.378906 10.183594 -29.855469 C 11.433594 -30.335938 12.765625 -30.578125 14.179688 -30.578125 C 15.566406 -30.578125 16.820312 -30.335938 17.941406 -29.847656 C 19.046875 -29.371094 20.105469 -28.625 21.117188 -27.613281 L 19.96875 -26.464844 L 18.503906 -27.164062 L 19.6875 -29.648438 Z M 20.710938 -26.398438 L 20.710938 -28.023438 L 22.179688 -27.328125 L 20.449219 -23.691406 L 18.820312 -25.316406 C 18.101562 -26.035156 17.378906 -26.554688 16.652344 -26.867188 C 15.941406 -27.175781 15.117188 -27.328125 14.179688 -27.328125 C 13.167969 -27.328125 12.222656 -27.160156 11.347656 -26.824219 C 10.460938 -26.484375 9.695312 -26.03125 9.050781 -25.464844 C 8.421875 -24.917969 7.929688 -24.269531 7.566406 -23.527344 C 7.21875 -22.8125 7.042969 -22.046875 7.042969 -21.230469 C 7.042969 -20.390625 7.226562 -19.65625 7.597656 -19.035156 C 8.039062 -18.285156 8.589844 -17.597656 9.25 -16.96875 C 9.957031 -16.296875 10.738281 -15.660156 11.585938 -15.0625 C 12.554688 -14.382812 13.449219 -13.671875 14.265625 -12.933594 C 15.136719 -12.148438 15.871094 -11.300781 16.464844 -10.394531 C 17.164062 -9.332031 17.511719 -8.117188 17.511719 -6.753906 C 17.511719 -5.761719 17.300781 -4.835938 16.882812 -3.980469 C 16.472656 -3.148438 15.921875 -2.433594 15.21875 -1.832031 C 14.53125 -1.238281 13.722656 -0.78125 12.785156 -0.453125 C 11.871094 -0.132812 10.875 0.0273438 9.800781 0.0273438 C 7.355469 0.0273438 5.425781 -0.839844 4.011719 -2.574219 C 2.707031 -4.179688 1.953125 -6.425781 1.757812 -9.316406 L 3.378906 -9.429688 L 3.378906 -7.804688 L 2.152344 -7.804688 L 2.152344 -9.429688 L 3.753906 -9.164062 L 2.195312 0.265625 L 0.59375 0 L 0.59375 -1.625 L 1.894531 -1.625 L 1.894531 0 L 0.328125 -0.433594 L 1.871094 -6.015625 L 3.847656 -3.941406 C 5.558594 -2.148438 7.527344 -1.253906 9.761719 -1.253906 C 10.859375 -1.253906 11.878906 -1.445312 12.816406 -1.835938 C 13.765625 -2.226562 14.59375 -2.761719 15.300781 -3.4375 C 16.003906 -4.109375 16.558594 -4.898438 16.964844 -5.808594 C 17.367188 -6.695312 17.566406 -7.65625 17.566406 -8.6875 C 17.566406 -9.679688 17.382812 -10.527344 17.011719 -11.234375 C 16.59375 -12.023438 16.070312 -12.730469 15.433594 -13.355469 C 14.742188 -14.035156 13.996094 -14.660156 13.1875 -15.226562 C 12.28125 -15.867188 11.4375 -16.5 10.65625 -17.125 C 9.785156 -17.824219 9.058594 -18.582031 8.476562 -19.398438 C 7.78125 -20.371094 7.433594 -21.480469 7.433594 -22.714844 C 7.433594 -23.585938 7.617188 -24.398438 7.988281 -25.15625 C 8.34375 -25.886719 8.835938 -26.523438 9.460938 -27.0625 C 10.082031 -27.601562 10.820312 -28.007812 11.671875 -28.289062 C 12.476562 -28.550781 13.351562 -28.683594 14.289062 -28.683594 C 16.414062 -28.683594 18.011719 -27.972656 19.078125 -26.550781 C 20.027344 -25.285156 20.542969 -23.359375 20.628906 -20.765625 L 19.003906 -20.710938 L 19.003906 -22.335938 L 20.265625 -22.335938 L 20.265625 -20.710938 L 18.679688 -21.050781 L 20.238281 -28.363281 L 21.824219 -28.023438 L 21.824219 -26.398438 Z M 20.710938 -26.398438 "/></g></g></g><g fill="#000000" fill-opacity="1"><g transform="translate(161.419499, 104.10613)"><g><path d="M 22.035156 -5.804688 C 21.765625 -4.609375 21.632812 -3.777344 21.632812 -3.304688 C 21.632812 -3.230469 21.636719 -3.167969 21.644531 -3.121094 L 21.644531 -3.113281 C 21.605469 -3.191406 21.546875 -3.25 21.46875 -3.292969 C 21.535156 -3.257812 21.699219 -3.222656 21.96875 -3.1875 C 22.355469 -3.136719 22.851562 -3.109375 23.457031 -3.109375 L 25.539062 -3.109375 L 24.355469 1.625 L 10.019531 1.625 L 11.203125 -3.109375 L 12.472656 -3.109375 C 13.0625 -3.109375 13.53125 -3.148438 13.878906 -3.230469 C 14.027344 -3.265625 14.144531 -3.332031 14.230469 -3.421875 C 14.390625 -3.597656 14.542969 -3.886719 14.691406 -4.300781 C 14.890625 -4.851562 15.09375 -5.601562 15.300781 -6.546875 L 16.304688 -11.113281 L 17.890625 -10.765625 L 17.890625 -9.140625 L 9.910156 -9.140625 L 9.910156 -10.765625 L 11.085938 -9.644531 L 8.746094 -7.191406 C 7.746094 -6.144531 6.960938 -5.296875 6.394531 -4.65625 C 5.839844 -4.035156 5.429688 -3.542969 5.160156 -3.183594 C 4.957031 -2.910156 4.84375 -2.75 4.824219 -2.695312 C 4.816406 -2.671875 4.808594 -2.65625 4.808594 -2.648438 C 4.8125 -2.671875 4.816406 -2.707031 4.816406 -2.746094 C 4.816406 -2.820312 4.785156 -2.90625 4.722656 -3.007812 C 4.652344 -3.121094 4.570312 -3.199219 4.476562 -3.242188 C 4.53125 -3.214844 4.660156 -3.191406 4.859375 -3.164062 C 5.152344 -3.128906 5.527344 -3.109375 5.976562 -3.109375 L 8.054688 -3.109375 L 6.871094 1.625 L -6.089844 1.625 L -4.90625 -3.109375 L -3.636719 -3.109375 C -3.253906 -3.109375 -2.871094 -3.1875 -2.484375 -3.34375 C -2.039062 -3.523438 -1.523438 -3.839844 -0.9375 -4.292969 C -0.296875 -4.785156 0.417969 -5.453125 1.214844 -6.292969 C 2.046875 -7.171875 3.019531 -8.28125 4.136719 -9.617188 L 21.738281 -30.578125 L 27.644531 -30.578125 Z M 18.867188 -6.519531 L 24.027344 -29.3125 L 25.613281 -28.953125 L 25.613281 -27.328125 L 22.492188 -27.328125 L 22.492188 -28.953125 L 23.738281 -27.90625 L 6.628906 -7.53125 C 5.46875 -6.144531 4.449219 -4.988281 3.574219 -4.0625 C 2.664062 -3.097656 1.820312 -2.316406 1.046875 -1.722656 C 0.226562 -1.085938 -0.546875 -0.621094 -1.265625 -0.332031 C -2.042969 -0.015625 -2.832031 0.140625 -3.636719 0.140625 L -3.636719 -1.484375 L -2.0625 -1.089844 L -2.433594 0.394531 L -4.007812 0 L -4.007812 -1.625 L 5.605469 -1.625 L 5.605469 0 L 4.027344 -0.394531 L 4.402344 -1.878906 L 5.976562 -1.484375 L 5.976562 0.140625 C 4.703125 0.140625 3.753906 0 3.132812 -0.285156 C 2.628906 -0.511719 2.242188 -0.847656 1.964844 -1.289062 C 1.699219 -1.714844 1.566406 -2.203125 1.566406 -2.746094 C 1.566406 -3.089844 1.640625 -3.453125 1.78125 -3.835938 C 1.910156 -4.179688 2.171875 -4.613281 2.5625 -5.132812 C 2.882812 -5.5625 3.351562 -6.125 3.960938 -6.8125 C 4.558594 -7.484375 5.367188 -8.355469 6.398438 -9.4375 L 9.214844 -12.386719 L 19.910156 -12.386719 L 18.476562 -5.851562 C 18.238281 -4.765625 17.996094 -3.882812 17.75 -3.199219 C 17.453125 -2.371094 17.074219 -1.710938 16.613281 -1.214844 C 16.082031 -0.640625 15.417969 -0.257812 14.628906 -0.0703125 C 14.035156 0.0703125 13.316406 0.140625 12.472656 0.140625 L 12.472656 -1.484375 L 14.046875 -1.089844 L 13.675781 0.394531 L 12.101562 0 L 12.101562 -1.625 L 23.085938 -1.625 L 23.085938 0 L 21.511719 -0.394531 L 21.882812 -1.878906 L 23.457031 -1.484375 L 23.457031 0.140625 C 21.832031 0.140625 20.664062 -0.046875 19.957031 -0.417969 C 19.40625 -0.707031 18.996094 -1.132812 18.722656 -1.691406 C 18.496094 -2.15625 18.382812 -2.695312 18.382812 -3.304688 C 18.382812 -4.019531 18.542969 -5.089844 18.867188 -6.519531 Z M 16.65625 -13.035156 L 19.699219 -24.542969 L 21.269531 -24.128906 L 21.269531 -22.503906 L 21.121094 -22.503906 L 21.121094 -24.128906 L 22.367188 -23.085938 L 12.753906 -11.578125 L 11.507812 -12.621094 L 11.507812 -14.246094 L 18.226562 -14.246094 L 18.226562 -12.621094 Z M 19.476562 -10.996094 L 8.035156 -10.996094 L 20.359375 -25.75 L 23.378906 -25.75 L 19.796875 -12.203125 Z M 19.476562 -10.996094 "/></g></g></g><g fill="#000000" fill-opacity="1"><g transform="translate(188.698722, 104.10613)"><g><path d="M 14.363281 -3.257812 C 15.234375 -3.257812 16.023438 -3.375 16.742188 -3.605469 C 17.414062 -3.824219 18 -4.140625 18.492188 -4.558594 C 18.957031 -4.957031 19.320312 -5.449219 19.578125 -6.035156 C 19.84375 -6.644531 19.980469 -7.378906 19.980469 -8.242188 C 19.980469 -8.578125 19.945312 -8.855469 19.882812 -9.066406 C 19.847656 -9.191406 19.804688 -9.28125 19.757812 -9.328125 C 19.765625 -9.320312 19.773438 -9.3125 19.78125 -9.308594 C 19.777344 -9.3125 19.773438 -9.316406 19.765625 -9.320312 C 19.714844 -9.347656 19.648438 -9.371094 19.5625 -9.394531 C 19.289062 -9.472656 18.917969 -9.511719 18.449219 -9.511719 L 16.40625 -9.511719 L 17.488281 -14.207031 L 31.046875 -14.207031 L 29.839844 -9.511719 L 28.582031 -9.511719 C 28.171875 -9.511719 27.84375 -9.484375 27.59375 -9.433594 C 27.613281 -9.4375 27.628906 -9.445312 27.640625 -9.453125 C 27.625 -9.441406 27.605469 -9.421875 27.574219 -9.386719 C 27.417969 -9.191406 27.246094 -8.84375 27.0625 -8.34375 C 26.832031 -7.730469 26.578125 -6.867188 26.292969 -5.761719 C 26.097656 -5.042969 25.914062 -4.328125 25.746094 -3.617188 C 25.597656 -2.988281 25.511719 -2.371094 25.492188 -1.761719 L 25.445312 -0.445312 L 24.144531 -0.21875 C 23.675781 -0.136719 23.171875 0.00390625 22.632812 0.203125 C 21.972656 0.449219 21.226562 0.703125 20.390625 0.957031 C 19.53125 1.222656 18.550781 1.460938 17.453125 1.667969 C 16.3125 1.886719 15.011719 1.996094 13.546875 1.996094 C 11.65625 1.996094 9.949219 1.691406 8.417969 1.082031 C 6.855469 0.460938 5.527344 -0.441406 4.433594 -1.625 C 3.351562 -2.789062 2.523438 -4.1875 1.941406 -5.820312 C 1.371094 -7.417969 1.085938 -9.203125 1.085938 -11.171875 C 1.085938 -13.742188 1.578125 -16.199219 2.566406 -18.542969 C 3.546875 -20.859375 4.859375 -22.902344 6.515625 -24.675781 C 8.171875 -26.457031 10.085938 -27.878906 12.257812 -28.945312 C 14.476562 -30.03125 16.796875 -30.578125 19.226562 -30.578125 C 20.722656 -30.578125 22.144531 -30.375 23.496094 -29.96875 C 24.839844 -29.570312 26.179688 -28.945312 27.519531 -28.097656 L 26.652344 -26.726562 L 25.34375 -27.691406 L 27.207031 -30.207031 L 31.308594 -30.207031 L 29.441406 -18.792969 L 25.195312 -18.792969 L 25.035156 -20.238281 C 24.832031 -22.121094 24.3125 -23.457031 23.476562 -24.246094 C 22.664062 -25.015625 21.34375 -25.398438 19.523438 -25.398438 C 18.066406 -25.398438 16.710938 -25.054688 15.457031 -24.371094 C 14.160156 -23.664062 13.023438 -22.679688 12.046875 -21.425781 C 11.050781 -20.136719 10.265625 -18.617188 9.691406 -16.867188 C 9.113281 -15.101562 8.824219 -13.191406 8.824219 -11.136719 C 8.824219 -8.332031 9.3125 -6.28125 10.289062 -4.988281 C 11.15625 -3.832031 12.515625 -3.257812 14.363281 -3.257812 Z M 14.363281 -0.0078125 C 11.4375 -0.0078125 9.214844 -1.015625 7.695312 -3.03125 C 6.28125 -4.902344 5.578125 -7.605469 5.578125 -11.136719 C 5.578125 -13.535156 5.917969 -15.78125 6.605469 -17.875 C 7.292969 -19.984375 8.253906 -21.832031 9.480469 -23.414062 C 10.734375 -25.027344 12.207031 -26.296875 13.902344 -27.222656 C 15.640625 -28.171875 17.515625 -28.644531 19.523438 -28.644531 C 22.207031 -28.644531 24.269531 -27.964844 25.707031 -26.605469 C 27.121094 -25.269531 27.976562 -23.261719 28.265625 -20.589844 L 26.652344 -20.414062 L 26.652344 -22.039062 L 28.0625 -22.039062 L 28.0625 -20.414062 L 26.457031 -20.675781 L 27.796875 -28.84375 L 29.398438 -28.582031 L 29.398438 -26.957031 L 28.023438 -26.957031 L 28.023438 -28.582031 L 29.328125 -27.613281 L 27.058594 -24.546875 L 25.78125 -25.351562 C 24.695312 -26.039062 23.625 -26.542969 22.566406 -26.859375 C 21.519531 -27.171875 20.40625 -27.328125 19.226562 -27.328125 C 17.300781 -27.328125 15.453125 -26.894531 13.6875 -26.027344 C 11.875 -25.136719 10.277344 -23.949219 8.890625 -22.464844 C 7.5 -20.96875 6.390625 -19.242188 5.5625 -17.277344 C 4.742188 -15.339844 4.332031 -13.304688 4.332031 -11.171875 C 4.332031 -9.578125 4.554688 -8.15625 5 -6.910156 C 5.433594 -5.699219 6.039062 -4.671875 6.816406 -3.832031 C 7.578125 -3.007812 8.511719 -2.378906 9.621094 -1.9375 C 10.765625 -1.480469 12.074219 -1.253906 13.546875 -1.253906 C 14.808594 -1.253906 15.90625 -1.34375 16.84375 -1.519531 C 17.824219 -1.707031 18.6875 -1.917969 19.4375 -2.144531 C 20.210938 -2.382812 20.898438 -2.617188 21.5 -2.839844 C 22.226562 -3.109375 22.921875 -3.304688 23.589844 -3.417969 L 23.867188 -1.820312 L 22.242188 -1.875 C 22.273438 -2.699219 22.386719 -3.53125 22.582031 -4.363281 C 22.761719 -5.113281 22.949219 -5.847656 23.148438 -6.5625 C 23.457031 -7.78125 23.746094 -8.75 24.015625 -9.472656 C 24.324219 -10.308594 24.671875 -10.964844 25.058594 -11.4375 C 25.574219 -12.070312 26.199219 -12.460938 26.933594 -12.613281 C 27.402344 -12.710938 27.949219 -12.757812 28.582031 -12.757812 L 28.582031 -11.136719 L 27.007812 -11.539062 L 27.378906 -12.988281 L 28.953125 -12.582031 L 28.953125 -10.960938 L 18.78125 -10.960938 L 18.78125 -12.582031 L 20.363281 -12.21875 L 20.03125 -10.769531 L 18.449219 -11.136719 L 18.449219 -12.757812 C 20.160156 -12.757812 21.394531 -12.351562 22.148438 -11.53125 C 22.867188 -10.75 23.226562 -9.652344 23.226562 -8.242188 C 23.226562 -6.925781 23.003906 -5.753906 22.550781 -4.730469 C 22.09375 -3.683594 21.441406 -2.800781 20.59375 -2.085938 C 19.773438 -1.386719 18.824219 -0.867188 17.742188 -0.515625 C 16.699219 -0.175781 15.574219 -0.0078125 14.363281 -0.0078125 Z M 14.363281 -0.0078125 "/></g></g></g><g fill="#000000" fill-opacity="1"><g transform="translate(218.724534, 104.10613)"><g><path d="M -0.558594 -3.109375 C 0.136719 -3.109375 0.6875 -3.15625 1.097656 -3.253906 C 1.347656 -3.3125 1.546875 -3.410156 1.695312 -3.546875 C 1.894531 -3.730469 2.070312 -4 2.226562 -4.351562 C 2.4375 -4.824219 2.640625 -5.460938 2.839844 -6.257812 L 7.152344 -22.648438 C 7.316406 -23.253906 7.4375 -23.769531 7.515625 -24.199219 C 7.585938 -24.570312 7.617188 -24.882812 7.617188 -25.128906 C 7.617188 -25.21875 7.613281 -25.296875 7.601562 -25.351562 C 7.597656 -25.367188 7.59375 -25.378906 7.589844 -25.386719 C 7.59375 -25.382812 7.59375 -25.378906 7.597656 -25.375 C 7.632812 -25.308594 7.679688 -25.261719 7.742188 -25.234375 C 7.378906 -25.394531 6.640625 -25.472656 5.53125 -25.472656 L 3.398438 -25.472656 L 4.699219 -30.207031 L 27.828125 -30.207031 L 27.828125 -19.460938 L 23.550781 -19.460938 L 23.226562 -20.660156 C 22.9375 -21.730469 22.621094 -22.59375 22.28125 -23.242188 C 21.980469 -23.8125 21.65625 -24.246094 21.308594 -24.542969 C 20.984375 -24.820312 20.625 -25.011719 20.226562 -25.121094 C 19.734375 -25.257812 19.179688 -25.324219 18.558594 -25.324219 L 13.734375 -25.324219 L 13.734375 -26.949219 L 15.304688 -26.535156 L 12.410156 -15.511719 L 10.839844 -15.925781 L 10.839844 -17.546875 L 13.175781 -17.546875 C 13.707031 -17.546875 14.136719 -17.59375 14.472656 -17.679688 C 14.71875 -17.746094 14.941406 -17.859375 15.144531 -18.023438 C 15.382812 -18.214844 15.621094 -18.503906 15.855469 -18.890625 C 16.15625 -19.378906 16.492188 -20.023438 16.859375 -20.832031 L 17.292969 -21.78125 L 21.695312 -21.78125 L 18.8125 -7.542969 L 14.203125 -7.542969 L 14.382812 -9.328125 C 14.449219 -10.019531 14.484375 -10.609375 14.484375 -11.097656 C 14.484375 -11.515625 14.449219 -11.863281 14.378906 -12.132812 C 14.335938 -12.304688 14.285156 -12.425781 14.226562 -12.492188 C 14.191406 -12.511719 14.140625 -12.535156 14.074219 -12.554688 C 13.847656 -12.628906 13.539062 -12.667969 13.140625 -12.667969 L 10.355469 -12.667969 L 10.355469 -14.289062 L 11.925781 -13.875 L 9.808594 -5.894531 C 9.625 -5.210938 9.53125 -4.65625 9.53125 -4.230469 C 9.53125 -4.085938 9.550781 -3.976562 9.597656 -3.902344 C 9.644531 -3.824219 9.734375 -3.746094 9.875 -3.671875 C 10.421875 -3.371094 11.523438 -3.21875 13.175781 -3.21875 C 14.472656 -3.21875 15.59375 -3.320312 16.535156 -3.519531 C 17.402344 -3.703125 18.144531 -3.984375 18.761719 -4.367188 C 19.363281 -4.742188 19.890625 -5.238281 20.347656 -5.859375 C 20.863281 -6.558594 21.355469 -7.4375 21.828125 -8.496094 L 22.257812 -9.457031 L 27.386719 -9.457031 L 23.289062 1.625 L -3.097656 1.625 L -1.792969 -3.109375 Z M -0.558594 0.140625 L -0.558594 -1.484375 L 1.007812 -1.054688 L 0.601562 0.429688 L -0.964844 0 L -0.964844 -1.625 L 22.160156 -1.625 L 22.160156 0 L 20.636719 -0.5625 L 23.53125 -8.394531 L 25.054688 -7.832031 L 25.054688 -6.207031 L 23.308594 -6.207031 L 23.308594 -7.832031 L 24.792969 -7.167969 C 24.226562 -5.902344 23.617188 -4.824219 22.96875 -3.9375 C 22.261719 -2.976562 21.429688 -2.199219 20.472656 -1.605469 C 19.53125 -1.023438 18.445312 -0.601562 17.207031 -0.339844 C 16.042969 -0.09375 14.699219 0.0273438 13.175781 0.0273438 C 10.96875 0.0273438 9.347656 -0.253906 8.316406 -0.820312 C 7.660156 -1.179688 7.160156 -1.648438 6.808594 -2.234375 C 6.457031 -2.820312 6.28125 -3.488281 6.28125 -4.230469 C 6.28125 -4.945312 6.410156 -5.777344 6.671875 -6.726562 L 9.105469 -15.914062 L 13.140625 -15.914062 C 14.785156 -15.914062 15.984375 -15.464844 16.730469 -14.566406 C 17.398438 -13.757812 17.734375 -12.601562 17.734375 -11.097656 C 17.734375 -10.5 17.695312 -9.804688 17.613281 -9.007812 L 16 -9.167969 L 16 -10.792969 L 17.484375 -10.792969 L 17.484375 -9.167969 L 15.890625 -9.492188 L 18.117188 -20.476562 L 19.710938 -20.15625 L 19.710938 -18.53125 L 18.335938 -18.53125 L 18.335938 -20.15625 L 19.8125 -19.480469 C 19.390625 -18.554688 18.996094 -17.789062 18.625 -17.191406 C 18.195312 -16.488281 17.714844 -15.921875 17.183594 -15.496094 C 16.621094 -15.039062 15.992188 -14.722656 15.296875 -14.539062 C 14.691406 -14.378906 13.984375 -14.300781 13.175781 -14.300781 L 8.734375 -14.300781 L 12.480469 -28.570312 L 18.558594 -28.570312 C 19.472656 -28.570312 20.316406 -28.464844 21.085938 -28.253906 C 21.949219 -28.015625 22.726562 -27.605469 23.417969 -27.015625 C 24.085938 -26.445312 24.664062 -25.691406 25.15625 -24.75 C 25.609375 -23.890625 26.011719 -22.808594 26.363281 -21.507812 L 24.796875 -21.082031 L 24.796875 -22.707031 L 26.207031 -22.707031 L 26.207031 -21.082031 L 24.582031 -21.082031 L 24.582031 -28.582031 L 26.207031 -28.582031 L 26.207031 -26.957031 L 5.9375 -26.957031 L 5.9375 -28.582031 L 7.503906 -28.152344 L 7.097656 -26.664062 L 5.53125 -27.097656 L 5.53125 -28.71875 C 7.09375 -28.71875 8.261719 -28.550781 9.035156 -28.214844 C 9.667969 -27.941406 10.140625 -27.503906 10.460938 -26.90625 C 10.730469 -26.402344 10.867188 -25.808594 10.867188 -25.128906 C 10.867188 -24.683594 10.8125 -24.175781 10.710938 -23.609375 C 10.617188 -23.097656 10.476562 -22.5 10.292969 -21.820312 L 5.992188 -5.472656 C 5.746094 -4.488281 5.480469 -3.675781 5.195312 -3.035156 C 4.859375 -2.273438 4.429688 -1.652344 3.910156 -1.167969 C 3.339844 -0.636719 2.648438 -0.277344 1.835938 -0.0898438 C 1.179688 0.0625 0.382812 0.140625 -0.558594 0.140625 Z M -0.558594 0.140625 "/></g></g></g><g fill="#000000" fill-opacity="1"><g transform="translate(246.189432, 104.10613)"><g><path d="M 10.210938 -7.238281 C 9.972656 -6.410156 9.792969 -5.683594 9.664062 -5.058594 C 9.550781 -4.496094 9.492188 -4.109375 9.492188 -3.898438 C 9.492188 -3.839844 9.496094 -3.804688 9.503906 -3.792969 C 9.527344 -3.757812 9.585938 -3.714844 9.683594 -3.664062 C 10.152344 -3.417969 10.957031 -3.292969 12.101562 -3.292969 L 14.167969 -3.292969 L 12.96875 1.625 L -2.761719 1.625 L -1.460938 -3.109375 L -0.222656 -3.109375 C 0.53125 -3.109375 1.125 -3.3125 1.554688 -3.71875 C 2.078125 -4.21875 2.511719 -5.089844 2.851562 -6.332031 L 7.226562 -22.691406 C 7.511719 -23.742188 7.65625 -24.53125 7.65625 -25.054688 C 7.65625 -25.132812 7.652344 -25.199219 7.640625 -25.246094 C 7.636719 -25.257812 7.636719 -25.265625 7.632812 -25.273438 C 7.636719 -25.269531 7.636719 -25.261719 7.640625 -25.257812 C 7.660156 -25.214844 7.683594 -25.183594 7.710938 -25.15625 C 7.71875 -25.152344 7.71875 -25.148438 7.722656 -25.148438 C 7.714844 -25.152344 7.703125 -25.160156 7.691406 -25.167969 C 7.558594 -25.238281 7.339844 -25.296875 7.035156 -25.34375 C 6.601562 -25.40625 6.046875 -25.449219 5.363281 -25.472656 L 3.308594 -25.542969 L 4.589844 -30.207031 L 16.148438 -30.207031 C 19.441406 -30.207031 22.078125 -29.554688 24.054688 -28.25 C 25.136719 -27.535156 25.953125 -26.671875 26.507812 -25.652344 C 27.066406 -24.625 27.347656 -23.476562 27.347656 -22.195312 C 27.347656 -20.945312 27.105469 -19.792969 26.625 -18.738281 C 26.152344 -17.703125 25.476562 -16.773438 24.601562 -15.960938 C 23.761719 -15.175781 22.761719 -14.511719 21.605469 -13.972656 C 20.488281 -13.445312 19.257812 -13.046875 17.917969 -12.773438 L 17.59375 -14.363281 L 19.101562 -14.972656 L 21.847656 -8.179688 C 22.347656 -6.96875 22.789062 -5.988281 23.175781 -5.234375 C 23.507812 -4.59375 23.835938 -4.109375 24.160156 -3.785156 C 24.410156 -3.535156 24.679688 -3.371094 24.96875 -3.285156 C 25.378906 -3.167969 25.914062 -3.109375 26.578125 -3.109375 L 28.707031 -3.109375 L 27.40625 1.625 L 18.007812 1.625 L 12.148438 -13.328125 L 13.660156 -13.917969 L 13.660156 -12.296875 L 10.394531 -12.296875 L 10.394531 -13.917969 L 11.957031 -13.480469 L 10.210938 -7.246094 Z M 7.085938 -8.121094 L 9.160156 -15.542969 L 14.765625 -15.542969 L 20.628906 -0.59375 L 19.117188 0 L 19.117188 -1.625 L 26.167969 -1.625 L 26.167969 0 L 24.601562 -0.429688 L 25.011719 -1.914062 L 26.578125 -1.484375 L 26.578125 0.140625 C 25.605469 0.140625 24.769531 0.0390625 24.066406 -0.164062 C 23.242188 -0.402344 22.507812 -0.84375 21.863281 -1.488281 C 21.300781 -2.050781 20.773438 -2.804688 20.289062 -3.746094 C 19.859375 -4.578125 19.375 -5.652344 18.835938 -6.964844 L 15.355469 -15.566406 L 17.269531 -15.957031 C 18.355469 -16.179688 19.339844 -16.496094 20.226562 -16.910156 C 21.074219 -17.308594 21.796875 -17.785156 22.390625 -18.335938 C 22.949219 -18.859375 23.375 -19.441406 23.671875 -20.085938 C 23.957031 -20.714844 24.097656 -21.417969 24.097656 -22.195312 C 24.097656 -22.921875 23.953125 -23.554688 23.65625 -24.097656 C 23.359375 -24.640625 22.894531 -25.121094 22.269531 -25.535156 C 20.832031 -26.484375 18.792969 -26.957031 16.148438 -26.957031 L 5.828125 -26.957031 L 5.828125 -28.582031 L 7.394531 -28.152344 L 6.984375 -26.664062 L 5.417969 -27.097656 L 5.472656 -28.71875 C 6.277344 -28.691406 6.960938 -28.636719 7.515625 -28.554688 C 8.199219 -28.453125 8.773438 -28.273438 9.238281 -28.023438 C 9.832031 -27.699219 10.269531 -27.261719 10.546875 -26.710938 C 10.785156 -26.234375 10.902344 -25.683594 10.902344 -25.054688 C 10.902344 -24.242188 10.722656 -23.175781 10.367188 -21.851562 L 5.984375 -5.472656 C 5.484375 -3.648438 4.753906 -2.277344 3.792969 -1.363281 C 2.734375 -0.363281 1.398438 0.140625 -0.222656 0.140625 L -0.222656 -1.484375 L 1.34375 -1.054688 L 0.933594 0.429688 L -0.632812 0 L -0.632812 -1.625 L 11.691406 -1.625 L 11.691406 0 L 10.113281 -0.386719 L 10.523438 -2.054688 L 12.101562 -1.671875 L 12.101562 -0.046875 C 10.421875 -0.046875 9.113281 -0.292969 8.171875 -0.789062 C 7.5625 -1.109375 7.09375 -1.53125 6.761719 -2.054688 C 6.417969 -2.597656 6.246094 -3.210938 6.246094 -3.898438 C 6.246094 -4.328125 6.324219 -4.929688 6.480469 -5.707031 C 6.625 -6.414062 6.828125 -7.222656 7.085938 -8.128906 Z M 10.875 -17.4375 L 12.695312 -17.4375 C 13.835938 -17.4375 14.890625 -17.566406 15.855469 -17.824219 C 16.765625 -18.070312 17.53125 -18.417969 18.152344 -18.859375 C 18.730469 -19.273438 19.183594 -19.777344 19.507812 -20.375 C 19.820312 -20.949219 19.980469 -21.632812 19.980469 -22.417969 C 19.980469 -23.394531 19.71875 -24.09375 19.195312 -24.527344 C 18.582031 -25.03125 17.589844 -25.285156 16.222656 -25.285156 C 15.863281 -25.285156 15.585938 -25.261719 15.386719 -25.207031 C 15.320312 -25.191406 15.273438 -25.167969 15.242188 -25.136719 C 15.160156 -25.0625 15.078125 -24.929688 14.992188 -24.738281 C 14.859375 -24.445312 14.730469 -24.046875 14.605469 -23.546875 L 12.445312 -15.398438 L 10.875 -15.8125 Z M 8.765625 -14.1875 L 11.453125 -24.335938 C 11.625 -25.023438 11.816406 -25.605469 12.03125 -26.074219 C 12.292969 -26.652344 12.617188 -27.128906 13.007812 -27.496094 C 13.445312 -27.910156 13.964844 -28.195312 14.570312 -28.351562 C 15.039062 -28.472656 15.585938 -28.535156 16.222656 -28.535156 C 18.367188 -28.535156 20.046875 -28.035156 21.261719 -27.03125 C 22.574219 -25.953125 23.226562 -24.414062 23.226562 -22.417969 C 23.226562 -21.078125 22.9375 -19.878906 22.359375 -18.820312 C 21.796875 -17.785156 21.023438 -16.917969 20.042969 -16.21875 C 19.101562 -15.546875 17.988281 -15.039062 16.699219 -14.691406 C 15.460938 -14.355469 14.125 -14.1875 12.695312 -14.1875 Z M 8.765625 -14.1875 "/></g></g></g><g fill="#ffffff" fill-opacity="1"><g transform="translate(83.441459, 104.10613)"><g><path d="M -0.5625 -1.484375 C 0.257812 -1.484375 0.9375 -1.546875 1.46875 -1.671875 C 2 -1.796875 2.441406 -2.023438 2.796875 -2.359375 C 3.160156 -2.691406 3.460938 -3.132812 3.703125 -3.6875 C 3.953125 -4.25 4.191406 -4.972656 4.421875 -5.859375 L 8.71875 -22.234375 C 8.894531 -22.878906 9.023438 -23.4375 9.109375 -23.90625 C 9.203125 -24.375 9.25 -24.785156 9.25 -25.140625 C 9.25 -25.953125 8.960938 -26.476562 8.390625 -26.71875 C 7.816406 -26.96875 6.863281 -27.09375 5.53125 -27.09375 L 5.9375 -28.59375 L 26.203125 -28.59375 L 26.203125 -21.09375 L 24.796875 -21.09375 C 24.472656 -22.28125 24.113281 -23.25 23.71875 -24 C 23.320312 -24.757812 22.867188 -25.351562 22.359375 -25.78125 C 21.859375 -26.21875 21.289062 -26.519531 20.65625 -26.6875 C 20.03125 -26.863281 19.332031 -26.953125 18.5625 -26.953125 L 13.734375 -26.953125 L 10.84375 -15.921875 L 13.171875 -15.921875 C 13.847656 -15.921875 14.421875 -15.984375 14.890625 -16.109375 C 15.359375 -16.234375 15.785156 -16.445312 16.171875 -16.75 C 16.554688 -17.0625 16.914062 -17.488281 17.25 -18.03125 C 17.582031 -18.582031 17.945312 -19.289062 18.34375 -20.15625 L 19.71875 -20.15625 L 17.484375 -9.171875 L 16 -9.171875 C 16.070312 -9.910156 16.109375 -10.550781 16.109375 -11.09375 C 16.109375 -12.207031 15.894531 -13.019531 15.46875 -13.53125 C 15.050781 -14.039062 14.273438 -14.296875 13.140625 -14.296875 L 10.359375 -14.296875 L 8.234375 -6.3125 C 8.015625 -5.5 7.90625 -4.804688 7.90625 -4.234375 C 7.90625 -3.335938 8.300781 -2.671875 9.09375 -2.234375 C 9.882812 -1.804688 11.242188 -1.59375 13.171875 -1.59375 C 14.585938 -1.59375 15.820312 -1.703125 16.875 -1.921875 C 17.925781 -2.148438 18.84375 -2.503906 19.625 -2.984375 C 20.40625 -3.472656 21.082031 -4.113281 21.65625 -4.90625 C 22.238281 -5.695312 22.789062 -6.671875 23.3125 -7.828125 L 25.0625 -7.828125 L 22.15625 0 L -0.96875 0 Z M -0.5625 -1.484375 "/></g></g></g><g fill="#ffffff" fill-opacity="1"><g transform="translate(110.906356, 104.10613)"><g><path d="M 8.65625 -7.6875 C 8.40625 -6.820312 8.210938 -6.050781 8.078125 -5.375 C 7.941406 -4.707031 7.875 -4.210938 7.875 -3.890625 C 7.875 -2.410156 9.285156 -1.671875 12.109375 -1.671875 L 11.6875 0 L -0.625 0 L -0.21875 -1.484375 C 0.96875 -1.484375 1.929688 -1.832031 2.671875 -2.53125 C 3.410156 -3.238281 3.992188 -4.363281 4.421875 -5.90625 L 8.796875 -22.28125 C 9.117188 -23.46875 9.28125 -24.394531 9.28125 -25.0625 C 9.28125 -25.425781 9.21875 -25.734375 9.09375 -25.984375 C 8.96875 -26.234375 8.753906 -26.4375 8.453125 -26.59375 C 8.160156 -26.757812 7.765625 -26.878906 7.265625 -26.953125 C 6.773438 -27.023438 6.160156 -27.070312 5.421875 -27.09375 L 5.828125 -28.59375 L 16.15625 -28.59375 C 19.125 -28.59375 21.460938 -28.023438 23.171875 -26.890625 C 24.878906 -25.765625 25.734375 -24.203125 25.734375 -22.203125 C 25.734375 -21.179688 25.539062 -20.25 25.15625 -19.40625 C 24.769531 -18.570312 24.21875 -17.820312 23.5 -17.15625 C 22.78125 -16.488281 21.921875 -15.914062 20.921875 -15.4375 C 19.921875 -14.96875 18.8125 -14.613281 17.59375 -14.375 L 20.34375 -7.578125 C 20.863281 -6.316406 21.328125 -5.285156 21.734375 -4.484375 C 22.140625 -3.691406 22.566406 -3.070312 23.015625 -2.625 C 23.460938 -2.1875 23.960938 -1.882812 24.515625 -1.71875 C 25.078125 -1.5625 25.765625 -1.484375 26.578125 -1.484375 L 26.171875 0 L 19.125 0 L 13.65625 -13.921875 L 10.390625 -13.921875 Z M 10.875 -15.8125 L 12.703125 -15.8125 C 13.984375 -15.8125 15.175781 -15.957031 16.28125 -16.25 C 17.382812 -16.550781 18.320312 -16.976562 19.09375 -17.53125 C 19.875 -18.09375 20.488281 -18.78125 20.9375 -19.59375 C 21.382812 -20.414062 21.609375 -21.359375 21.609375 -22.421875 C 21.609375 -23.910156 21.148438 -25.03125 20.234375 -25.78125 C 19.316406 -26.539062 17.976562 -26.921875 16.21875 -26.921875 C 15.726562 -26.921875 15.316406 -26.875 14.984375 -26.78125 C 14.648438 -26.695312 14.363281 -26.539062 14.125 -26.3125 C 13.882812 -26.09375 13.675781 -25.789062 13.5 -25.40625 C 13.332031 -25.03125 13.175781 -24.546875 13.03125 -23.953125 Z M 10.875 -15.8125 "/></g></g></g><g fill="#ffffff" fill-opacity="1"><g transform="translate(139.224892, 104.10613)"><g><path d="M 20.71875 -28.03125 L 21.828125 -28.03125 L 20.265625 -20.71875 L 19.015625 -20.71875 C 18.929688 -22.96875 18.519531 -24.585938 17.78125 -25.578125 C 17.039062 -26.566406 15.878906 -27.0625 14.296875 -27.0625 C 13.523438 -27.0625 12.816406 -26.957031 12.171875 -26.75 C 11.535156 -26.539062 10.988281 -26.238281 10.53125 -25.84375 C 10.070312 -25.445312 9.710938 -24.984375 9.453125 -24.453125 C 9.191406 -23.921875 9.0625 -23.34375 9.0625 -22.71875 C 9.0625 -21.832031 9.304688 -21.039062 9.796875 -20.34375 C 10.296875 -19.65625 10.921875 -19.003906 11.671875 -18.390625 C 12.429688 -17.785156 13.25 -17.171875 14.125 -16.546875 C 15 -15.929688 15.8125 -15.253906 16.5625 -14.515625 C 17.320312 -13.773438 17.945312 -12.929688 18.4375 -11.984375 C 18.9375 -11.046875 19.1875 -9.945312 19.1875 -8.6875 C 19.1875 -7.425781 18.9375 -6.242188 18.4375 -5.140625 C 17.945312 -4.035156 17.273438 -3.078125 16.421875 -2.265625 C 15.566406 -1.453125 14.570312 -0.804688 13.4375 -0.328125 C 12.300781 0.140625 11.078125 0.375 9.765625 0.375 C 7.066406 0.375 4.703125 -0.691406 2.671875 -2.828125 L 1.890625 0 L 0.59375 0 L 2.15625 -9.4375 L 3.375 -9.4375 C 3.550781 -6.882812 4.179688 -4.9375 5.265625 -3.59375 C 6.359375 -2.257812 7.867188 -1.59375 9.796875 -1.59375 C 10.691406 -1.59375 11.507812 -1.722656 12.25 -1.984375 C 12.988281 -2.242188 13.625 -2.601562 14.15625 -3.0625 C 14.695312 -3.519531 15.117188 -4.0625 15.421875 -4.6875 C 15.734375 -5.320312 15.890625 -6.007812 15.890625 -6.75 C 15.890625 -7.789062 15.628906 -8.707031 15.109375 -9.5 C 14.585938 -10.289062 13.941406 -11.03125 13.171875 -11.71875 C 12.410156 -12.414062 11.570312 -13.085938 10.65625 -13.734375 C 9.738281 -14.378906 8.894531 -15.066406 8.125 -15.796875 C 7.363281 -16.523438 6.722656 -17.328125 6.203125 -18.203125 C 5.679688 -19.085938 5.421875 -20.097656 5.421875 -21.234375 C 5.421875 -22.296875 5.648438 -23.296875 6.109375 -24.234375 C 6.566406 -25.179688 7.191406 -26 7.984375 -26.6875 C 8.773438 -27.382812 9.703125 -27.9375 10.765625 -28.34375 C 11.828125 -28.75 12.96875 -28.953125 14.1875 -28.953125 C 15.34375 -28.953125 16.378906 -28.753906 17.296875 -28.359375 C 18.210938 -27.960938 19.101562 -27.332031 19.96875 -26.46875 Z M 20.71875 -28.03125 "/></g></g></g><g fill="#ffffff" fill-opacity="1"><g transform="translate(161.419499, 104.10613)"><g><path d="M 20.453125 -6.15625 C 20.160156 -4.84375 20.015625 -3.890625 20.015625 -3.296875 C 20.015625 -2.585938 20.25 -2.109375 20.71875 -1.859375 C 21.1875 -1.609375 22.101562 -1.484375 23.46875 -1.484375 L 23.09375 0 L 12.109375 0 L 12.46875 -1.484375 C 13.1875 -1.484375 13.78125 -1.535156 14.25 -1.640625 C 14.726562 -1.753906 15.117188 -1.976562 15.421875 -2.3125 C 15.734375 -2.65625 16 -3.132812 16.21875 -3.75 C 16.445312 -4.363281 16.671875 -5.179688 16.890625 -6.203125 L 17.890625 -10.765625 L 9.90625 -10.765625 L 7.578125 -8.3125 C 6.554688 -7.25 5.753906 -6.390625 5.171875 -5.734375 C 4.597656 -5.078125 4.160156 -4.550781 3.859375 -4.15625 C 3.566406 -3.757812 3.378906 -3.460938 3.296875 -3.265625 C 3.222656 -3.066406 3.1875 -2.894531 3.1875 -2.75 C 3.1875 -2.28125 3.390625 -1.953125 3.796875 -1.765625 C 4.210938 -1.578125 4.941406 -1.484375 5.984375 -1.484375 L 5.609375 0 L -4.015625 0 L -3.640625 -1.484375 C -3.046875 -1.484375 -2.457031 -1.597656 -1.875 -1.828125 C -1.289062 -2.066406 -0.648438 -2.457031 0.046875 -3 C 0.753906 -3.550781 1.535156 -4.273438 2.390625 -5.171875 C 3.242188 -6.078125 4.242188 -7.210938 5.390625 -8.578125 L 22.5 -28.953125 L 25.609375 -28.953125 Z M 18.234375 -12.625 L 21.265625 -24.125 L 21.125 -24.125 L 11.515625 -12.625 Z M 18.234375 -12.625 "/></g></g></g><g fill="#ffffff" fill-opacity="1"><g transform="translate(188.698722, 104.10613)"><g><path d="M 14.375 -1.640625 C 15.40625 -1.640625 16.359375 -1.78125 17.234375 -2.0625 C 18.117188 -2.34375 18.890625 -2.757812 19.546875 -3.3125 C 20.203125 -3.875 20.707031 -4.5625 21.0625 -5.375 C 21.425781 -6.195312 21.609375 -7.148438 21.609375 -8.234375 C 21.609375 -9.234375 21.390625 -9.96875 20.953125 -10.4375 C 20.523438 -10.90625 19.691406 -11.140625 18.453125 -11.140625 L 18.78125 -12.578125 L 28.953125 -12.578125 L 28.59375 -11.140625 C 28.070312 -11.140625 27.628906 -11.101562 27.265625 -11.03125 C 26.910156 -10.957031 26.59375 -10.75 26.3125 -10.40625 C 26.039062 -10.070312 25.78125 -9.570312 25.53125 -8.90625 C 25.289062 -8.238281 25.019531 -7.320312 24.71875 -6.15625 C 24.519531 -5.445312 24.332031 -4.722656 24.15625 -3.984375 C 23.988281 -3.253906 23.894531 -2.53125 23.875 -1.8125 C 23.300781 -1.71875 22.695312 -1.550781 22.0625 -1.3125 C 21.4375 -1.082031 20.722656 -0.84375 19.921875 -0.59375 C 19.117188 -0.34375 18.195312 -0.117188 17.15625 0.078125 C 16.113281 0.273438 14.910156 0.375 13.546875 0.375 C 11.867188 0.375 10.359375 0.109375 9.015625 -0.421875 C 7.679688 -0.953125 6.550781 -1.71875 5.625 -2.71875 C 4.695312 -3.726562 3.976562 -4.941406 3.46875 -6.359375 C 2.957031 -7.785156 2.703125 -9.390625 2.703125 -11.171875 C 2.703125 -13.523438 3.15625 -15.769531 4.0625 -17.90625 C 4.96875 -20.050781 6.179688 -21.941406 7.703125 -23.578125 C 9.222656 -25.210938 10.976562 -26.515625 12.96875 -27.484375 C 14.96875 -28.460938 17.054688 -28.953125 19.234375 -28.953125 C 20.566406 -28.953125 21.832031 -28.769531 23.03125 -28.40625 C 24.238281 -28.050781 25.445312 -27.492188 26.65625 -26.734375 L 28.03125 -28.59375 L 29.40625 -28.59375 L 28.0625 -20.421875 L 26.65625 -20.421875 C 26.40625 -22.691406 25.71875 -24.359375 24.59375 -25.421875 C 23.46875 -26.492188 21.78125 -27.03125 19.53125 -27.03125 C 17.789062 -27.03125 16.171875 -26.617188 14.671875 -25.796875 C 13.179688 -24.984375 11.878906 -23.859375 10.765625 -22.421875 C 9.648438 -20.984375 8.773438 -19.300781 8.140625 -17.375 C 7.515625 -15.445312 7.203125 -13.367188 7.203125 -11.140625 C 7.203125 -4.804688 9.59375 -1.640625 14.375 -1.640625 Z M 14.375 -1.640625 "/></g></g></g><g fill="#ffffff" fill-opacity="1"><g transform="translate(218.724534, 104.10613)"><g><path d="M -0.5625 -1.484375 C 0.257812 -1.484375 0.9375 -1.546875 1.46875 -1.671875 C 2 -1.796875 2.441406 -2.023438 2.796875 -2.359375 C 3.160156 -2.691406 3.460938 -3.132812 3.703125 -3.6875 C 3.953125 -4.25 4.191406 -4.972656 4.421875 -5.859375 L 8.71875 -22.234375 C 8.894531 -22.878906 9.023438 -23.4375 9.109375 -23.90625 C 9.203125 -24.375 9.25 -24.785156 9.25 -25.140625 C 9.25 -25.953125 8.960938 -26.476562 8.390625 -26.71875 C 7.816406 -26.96875 6.863281 -27.09375 5.53125 -27.09375 L 5.9375 -28.59375 L 26.203125 -28.59375 L 26.203125 -21.09375 L 24.796875 -21.09375 C 24.472656 -22.28125 24.113281 -23.25 23.71875 -24 C 23.320312 -24.757812 22.867188 -25.351562 22.359375 -25.78125 C 21.859375 -26.21875 21.289062 -26.519531 20.65625 -26.6875 C 20.03125 -26.863281 19.332031 -26.953125 18.5625 -26.953125 L 13.734375 -26.953125 L 10.84375 -15.921875 L 13.171875 -15.921875 C 13.847656 -15.921875 14.421875 -15.984375 14.890625 -16.109375 C 15.359375 -16.234375 15.785156 -16.445312 16.171875 -16.75 C 16.554688 -17.0625 16.914062 -17.488281 17.25 -18.03125 C 17.582031 -18.582031 17.945312 -19.289062 18.34375 -20.15625 L 19.71875 -20.15625 L 17.484375 -9.171875 L 16 -9.171875 C 16.070312 -9.910156 16.109375 -10.550781 16.109375 -11.09375 C 16.109375 -12.207031 15.894531 -13.019531 15.46875 -13.53125 C 15.050781 -14.039062 14.273438 -14.296875 13.140625 -14.296875 L 10.359375 -14.296875 L 8.234375 -6.3125 C 8.015625 -5.5 7.90625 -4.804688 7.90625 -4.234375 C 7.90625 -3.335938 8.300781 -2.671875 9.09375 -2.234375 C 9.882812 -1.804688 11.242188 -1.59375 13.171875 -1.59375 C 14.585938 -1.59375 15.820312 -1.703125 16.875 -1.921875 C 17.925781 -2.148438 18.84375 -2.503906 19.625 -2.984375 C 20.40625 -3.472656 21.082031 -4.113281 21.65625 -4.90625 C 22.238281 -5.695312 22.789062 -6.671875 23.3125 -7.828125 L 25.0625 -7.828125 L 22.15625 0 L -0.96875 0 Z M -0.5625 -1.484375 "/></g></g></g><g fill="#ffffff" fill-opacity="1"><g transform="translate(246.189432, 104.10613)"><g><path d="M 8.65625 -7.6875 C 8.40625 -6.820312 8.210938 -6.050781 8.078125 -5.375 C 7.941406 -4.707031 7.875 -4.210938 7.875 -3.890625 C 7.875 -2.410156 9.285156 -1.671875 12.109375 -1.671875 L 11.6875 0 L -0.625 0 L -0.21875 -1.484375 C 0.96875 -1.484375 1.929688 -1.832031 2.671875 -2.53125 C 3.410156 -3.238281 3.992188 -4.363281 4.421875 -5.90625 L 8.796875 -22.28125 C 9.117188 -23.46875 9.28125 -24.394531 9.28125 -25.0625 C 9.28125 -25.425781 9.21875 -25.734375 9.09375 -25.984375 C 8.96875 -26.234375 8.753906 -26.4375 8.453125 -26.59375 C 8.160156 -26.757812 7.765625 -26.878906 7.265625 -26.953125 C 6.773438 -27.023438 6.160156 -27.070312 5.421875 -27.09375 L 5.828125 -28.59375 L 16.15625 -28.59375 C 19.125 -28.59375 21.460938 -28.023438 23.171875 -26.890625 C 24.878906 -25.765625 25.734375 -24.203125 25.734375 -22.203125 C 25.734375 -21.179688 25.539062 -20.25 25.15625 -19.40625 C 24.769531 -18.570312 24.21875 -17.820312 23.5 -17.15625 C 22.78125 -16.488281 21.921875 -15.914062 20.921875 -15.4375 C 19.921875 -14.96875 18.8125 -14.613281 17.59375 -14.375 L 20.34375 -7.578125 C 20.863281 -6.316406 21.328125 -5.285156 21.734375 -4.484375 C 22.140625 -3.691406 22.566406 -3.070312 23.015625 -2.625 C 23.460938 -2.1875 23.960938 -1.882812 24.515625 -1.71875 C 25.078125 -1.5625 25.765625 -1.484375 26.578125 -1.484375 L 26.171875 0 L 19.125 0 L 13.65625 -13.921875 L 10.390625 -13.921875 Z M 10.875 -15.8125 L 12.703125 -15.8125 C 13.984375 -15.8125 15.175781 -15.957031 16.28125 -16.25 C 17.382812 -16.550781 18.320312 -16.976562 19.09375 -17.53125 C 19.875 -18.09375 20.488281 -18.78125 20.9375 -19.59375 C 21.382812 -20.414062 21.609375 -21.359375 21.609375 -22.421875 C 21.609375 -23.910156 21.148438 -25.03125 20.234375 -25.78125 C 19.316406 -26.539062 17.976562 -26.921875 16.21875 -26.921875 C 15.726562 -26.921875 15.316406 -26.875 14.984375 -26.78125 C 14.648438 -26.695312 14.363281 -26.539062 14.125 -26.3125 C 13.882812 -26.09375 13.675781 -25.789062 13.5 -25.40625 C 13.332031 -25.03125 13.175781 -24.546875 13.03125 -23.953125 Z M 10.875 -15.8125 "/></g></g></g></svg>